<svg height="456pt" viewBox="0 -4 456.49329 456" width="456pt" xmlns="http://www.w3.org/2000/svg"><path d="m278.75 171.960938c-2.984375-2.976563-7.816406-2.976563-10.800781 0l-7.285157 7.28125c-13.042968-10.125-28.183593-10.308594-38.582031.089843-11.035156 11.035157-7.296875 22.984375 1.199219 37.308594l-15.140625 15.140625c-2.867187-4.597656-4.847656-9.691406-5.839844-15.019531-.765625-3.800781-4.269531-6.414063-8.128906-6.070313l-1.863281.160156c-2.171875.1875-4.164063 1.289063-5.472656 3.03125-1.3125 1.742188-1.820313 3.960938-1.394532 6.101563 1.785156 8.585937 5.523438 16.644531 10.925782 23.550781l-4.039063 4.042969c-2.710937 3.023437-2.585937 7.640625.285156 10.511719 2.875 2.875 7.492188 3 10.515625.285156l3.980469-3.980469c13.863281 10.710938 28.398437 10.371094 38.960937-.203125 10.71875-10.71875 7.335938-22.59375-1.511718-37.242187l14.476562-14.480469c1.601563 3.046875 2.847656 6.269531 3.710938 9.601562.996094 3.777344 4.699218 6.183594 8.558594 5.558594l1.816406-.289062c2.09375-.320313 3.957031-1.5 5.148437-3.25 1.191407-1.753906 1.601563-3.921875 1.132813-5.984375-1.546875-6.402344-4.367188-12.429688-8.292969-17.71875l7.640625-7.636719c2.96875-2.984375 2.96875-7.804688 0-10.789062zm-47.710938 70.121093c-3.402343 3.097657-8.515624 3.371094-12.230468.660157l12.503906-12.503907c2.695312 5.515625 2.734375 8.816407-.273438 11.84375zm5.566407-38.769531c-2.644531-5.378906-2.554688-8.757812.457031-11.769531 3.328125-3.015625 8.316406-3.28125 11.945312-.636719zm-35.101563 131.527344c2.734375 2.734375 2.734375 7.167968 0 9.902344-2.734375 2.730468-7.164062 2.730468-9.898437 0l-88.679688-88.703126c-2.734375-2.730468-2.734375-7.164062 0-9.898437s7.164063-2.734375 9.898438 0zm-25.261718 25.265625c2.734374 2.734375 2.734374 7.164062 0 9.898437-2.734376 2.734375-7.167969 2.734375-9.902344 0l-88.691406-88.679687c-2.734376-2.734375-2.734376-7.164063 0-9.898438 2.734374-2.734375 7.167968-2.734375 9.902343 0zm265.679687-345.105469c-12.792969-12.0625-30.644531-17.164062-47.882813-13.679688-17.617187 3.308594-33.78125 11.984376-46.277343 24.839844-6.496094 6.476563-12.019531 13.859375-16.402344 21.921875l-94.117187 1.636719c-11.371094.164062-22.226563 4.773438-30.242188 12.839844l-204.917969 204.921875c-1.332031 1.300781-2.082031 3.082031-2.082031 4.941406s.75 3.640625 2.082031 4.9375l168.199219 168.242187c2.730469 2.71875 7.148438 2.71875 9.878906 0l204.960938-204.921874c8.054687-8.039063 12.660156-18.902344 12.839844-30.277344l1.398437-80.523438c.082031-.039062.121094-.039062.203125-.078125 11.703125-4.667969 22.324219-11.695312 31.199219-20.640625 12.855469-12.488281 21.523437-28.65625 24.800781-46.28125.597656-3.554687.90625-7.152344.917969-10.757812.300781-13.824219-4.941407-27.191406-14.558594-37.121094zm-118.359375 81.480469c2.03125 9.007812 6.550781 17.265625 13.039062 23.839843 2.390626 2.402344 5.046876 4.519532 7.917969 6.320313-7.792969 1.464844-15.71875-1.78125-20.246093-8.292969-4.523438-6.511718-4.804688-15.074218-.710938-21.867187zm60.398438 113.679687c-.136719 7.742188-3.277344 15.128906-8.761719 20.601563l-199.957031 199.957031-158.320313-158.277344 199.960937-200c5.480469-5.46875 12.859376-8.605468 20.597657-8.761718l87.960937-1.519532c-1.109375 3.355469-1.949218 6.792969-2.519531 10.28125-.320313 1.917969-.5625 3.839844-.722656 5.757813-2.007813 1.300781-3.875 2.816406-5.558594 4.519531-13.167969 13.363281-13.089844 34.84375.171875 48.109375 13.265625 13.265625 34.75 13.339844 48.109375.171875l.039063-.039062c.867187-.859376 1.679687-1.765626 2.441406-2.71875.636718-.800782 1.238281-1.601563 1.839844-2.480469l.117187-.242188c.5625-.839843 1.082031-1.71875 1.5625-2.597656.042969-.046875.070313-.101563.078125-.160156.464844-.859375.878906-1.738281 1.242188-2.640625.546874-1.21875 1-2.476563 1.359374-3.761719.28125-.984375.511719-1.988281.679688-3 .207031-.933594.355469-1.882813.441406-2.839844v-.160156c.046875-.382813.074219-.769531.078125-1.160156.035157-.316407.046875-.636719.039063-.957031.066406-1.203126.054687-2.402344-.039063-3.601563-.039062-.800781-.121093-1.601563-.238281-2.398437-.960938-7.398438-4.351562-14.265626-9.640625-19.523438-1.394531-1.40625-2.921875-2.679688-4.5625-3.796875 0-.121094.042969-.203125.042969-.28125.585937-3.328125 1.59375-6.566406 3-9.640625.160156.082031.320312.199219.480468.28125 10.898438 6.871094 18.46875 17.949219 20.917969 30.597656-.003906.046875.007813.089844.039063.121094-.027344.214844-.011719.429688.042968.640625.238282 1.441406.476563 2.839844.597657 4.199219.039062.5625.082031 1.160156.121093 1.71875.085938 1.078125.113282 2.160156.078126 3.242187l-.238282 14.160157v.160156zm-12.519532-152.679687c-.167968-.117188-.339844-.222657-.519531-.320313 1.140625-1.449218 2.367187-2.824218 3.679687-4.121094 6.914063-7.214843 15.851563-12.167968 25.640626-14.199218 3.757812-.640625 10.679687-1.078125 14.796874 3.039062 4.121094 4.121094 3.683594 11.042969 3.042969 14.800782-2.023437 9.777343-6.976562 18.707031-14.199219 25.601562-2.363281 2.359375-4.933593 4.5-7.683593 6.398438-4.472657-12.90625-13.203125-23.910157-24.757813-31.199219zm70.320313 3.121093c-2.816407 14.742188-10.125 28.253907-20.921875 38.679688-6.191406 6.214844-13.367188 11.363281-21.238282 15.238281l.078126-4.480469c.042968-1.359374 0-2.679687-.078126-4.039062-.039062-.878906-.121093-1.800781-.199218-2.71875v-.039062c5.261718-3.035157 10.101562-6.746094 14.398437-11.042969 9.273438-8.976563 15.582031-20.574219 18.082031-33.238281 1.078126-6.402344 1.597657-18.441407-6.960937-27-8.5625-8.558594-20.5625-8-26.960937-6.960938-12.660157 2.53125-24.253907 8.851562-33.238282 18.121094-2.488281 2.496094-4.785156 5.167968-6.882812 8-2.902344 3.871094-5.359375 8.054687-7.320313 12.480468-1.40625 3.140626-2.519531 6.410157-3.320312 9.757813-.238281 1-.4375 2-.597657 3-.632812 3.675781-.742187 7.417969-.320312 11.121094.535156 5.960937 3.105469 11.554687 7.28125 15.839843 2.089844 2.097657 4.5625 3.78125 7.277344 4.960938-.039063.4375-.078125.839844-.117188 1.277344-.082031.523437-.160156 1.042968-.28125 1.5625-.082031.488281-.203125.96875-.359375 1.4375-.171875.640625-.386719 1.269531-.640625 1.882812-.164062.421875-.351562.835938-.558594 1.238282-.160156.359374-.363281.679687-.5625 1.039062-.199218.363281-.398437.722656-.640624 1.082031-4.179688-1.710937-7.984376-4.226562-11.199219-7.398437-6.035157-6.261719-9.675781-14.445313-10.28125-23.121094-.324219-4.195312-.136719-8.414062.5625-12.5625.078125-.597656.199219-1.160156.320312-1.757812.742188-3.71875 1.824219-7.363282 3.238281-10.878907 1.839844-4.703125 4.171876-9.195312 6.960938-13.402343 3.019531-4.550782 6.492188-8.785157 10.359375-12.640626 10.433594-10.777343 23.945313-18.070312 38.679687-20.878906 2.761719-.472656 5.558594-.714844 8.359376-.71875 5.175781-.039062 10.3125.871094 15.160156 2.679688 4.570312 1.691406 8.71875 4.351562 12.160156 7.800781 8.871094 9.589844 12.515625 22.90625 9.761719 35.679687zm0 0"/></svg>